<?xml version="1.0" encoding="UTF-8"?>
<!DOCTYPE svg PUBLIC "-//W3C//DTD SVG 1.1//EN" "http://www.w3.org/Graphics/SVG/1.1/DTD/svg11.dtd">

<svg xmlns="http://www.w3.org/2000/svg" xml:space="preserve"  width="173" height="173" version="1.1" style="shape-rendering:geometricPrecision; text-rendering:geometricPrecision; image-rendering:optimizeQuality; fill-rule:evenodd; clip-rule:evenodd"
viewBox="0 0 20990.28 13970"
 xmlns:xlink="http://www.w3.org/1999/xlink">
 <defs>
  <style type="text/css">
   <![CDATA[
    .fil0 {fill:black;fill-rule:nonzero}
    .fil1 {fill:url(#id0)}
   ]]>
  </style>
  <linearGradient id="id0" gradientUnits="userSpaceOnUse" x1="931.56" y1="3574.34" x2="20393.8" y2="9529.94">
   <stop offset="0" style="stop-opacity:1; stop-color:#7C531C"/>
   <stop offset="1" style="stop-opacity:1; stop-color:#E7B64B"/>
  </linearGradient>
 </defs>
 <g id="Слой_x0020_1">
  <metadata id="CorelCorpID_0Corel-Layer"/>
  <path class="fil0" d="M11004.85 2671.12c0,-219.83 -42.13,-421.34 -126.4,-604.53 -84.26,-183.19 -214.33,-344.39 -390.19,-485.45 -175.86,-141.06 -403.02,-250.97 -681.47,-329.74 -278.45,-78.77 -615.51,-119.07 -1011.2,-119.07 -498.28,0 -1025.87,71.44 -1582.76,214.33 -556.9,142.89 -1110.14,326.08 -1659.7,549.57 -549.57,223.49 -1077.16,467.13 -1582.76,730.92 -505.61,263.8 -950.76,520.26 -1335.46,769.4 -384.7,249.14 -692.46,472.63 -923.28,670.48 -230.81,197.84 -346.22,337.07 -346.22,417.67 0,117.24 36.63,214.33 109.91,291.27 73.28,76.94 150.22,115.41 230.82,115.41 73.27,0 172.2,-20.15 296.77,-60.45 124.57,-40.3 261.96,-97.09 412.17,-170.37 150.22,-73.27 311.43,-155.71 483.62,-247.3 172.2,-91.6 346.23,-188.69 522.1,-291.28 212.5,-124.57 421.33,-252.8 626.5,-384.69 205.18,-131.9 390.2,-256.47 555.07,-373.71 164.87,-117.24 304.1,-219.83 417.67,-307.76 113.58,-87.93 185.02,-150.22 214.34,-186.85 -7.33,-43.97 -29.32,-69.62 -65.95,-76.94 -36.64,-7.33 -73.28,-7.33 -109.92,0 -43.96,21.98 -122.73,69.61 -236.31,142.88 -113.58,73.28 -252.8,159.38 -417.67,258.3 -164.88,98.92 -342.57,205.17 -533.09,318.75 -190.51,113.58 -384.7,225.33 -582.54,335.24 -307.76,175.86 -593.54,326.08 -857.33,450.65 -263.79,124.57 -446.98,186.85 -549.57,186.85 -51.29,0 -76.94,-18.32 -76.94,-54.96 0,-36.64 73.28,-106.25 219.83,-208.83 146.55,-102.59 344.4,-225.33 593.53,-368.22 249.14,-142.88 542.25,-298.59 879.32,-467.13 337.06,-168.53 699.78,-338.9 1088.14,-511.1 388.37,-172.2 791.38,-338.9 1209.06,-500.11 417.67,-161.2 828.01,-304.09 1231.03,-428.66 -146.55,161.21 -349.89,388.36 -610.02,681.46 -260.13,293.11 -549.57,624.68 -868.32,994.73 -318.75,370.04 -655.82,767.56 -1011.21,1192.56 -355.39,425 -701.62,850 -1038.68,1275 -263.8,329.74 -525.76,674.14 -785.89,1033.19 -260.13,359.06 -490.95,696.12 -692.46,1011.21 -201.51,315.09 -366.38,591.7 -494.61,829.85 -128.23,238.15 -192.35,404.85 -192.35,500.11 0,58.62 12.82,128.23 38.47,208.84 25.65,80.6 60.45,159.37 104.42,236.31 43.97,76.94 93.43,141.06 148.38,192.35 54.96,51.29 111.75,76.94 170.37,76.94 51.29,0 130.06,-78.77 236.31,-236.32 106.26,-157.54 216.17,-335.23 329.75,-531.25 113.57,-197.84 216.16,-384.69 307.76,-560.56 91.59,-175.86 148.38,-282.11 170.36,-318.75 0,-58.62 -25.64,-80.6 -76.94,-65.95 -21.98,14.66 -60.45,49.47 -115.41,104.42 -54.95,54.96 -113.57,115.41 -175.86,181.36 -62.28,65.95 -119.07,128.23 -170.37,186.85 -51.29,58.63 -87.93,98.93 -109.91,120.91l-32.97 -21.98c0,-21.99 60.45,-122.74 181.35,-302.27 120.91,-179.52 289.44,-414.01 505.61,-703.45 216.16,-287.6 468.96,-619.18 758.4,-992.88 289.44,-373.71 606.36,-767.57 950.76,-1185.24 403.02,-490.95 796.87,-945.26 1181.57,-1366.6 384.7,-421.33 723.6,-787.71 1016.71,-1102.8 293.1,-315.09 529.42,-567.89 708.94,-758.41 179.53,-190.51 269.29,-300.43 269.29,-329.74 0,-51.29 -16.49,-131.9 -49.46,-245.47 -32.97,-113.58 -67.78,-199.68 -104.42,-258.3 329.74,-80.6 641.17,-146.55 934.27,-197.85 293.1,-51.29 564.22,-76.94 813.36,-76.94 498.28,0 853.67,76.94 1066.17,230.82 212.5,153.88 318.75,355.39 318.75,604.53 0,219.83 -69.61,465.3 -208.84,736.42 -139.22,271.12 -329.74,547.74 -571.55,829.85 -241.81,282.12 -522.09,556.9 -840.84,824.36 -318.75,267.45 -657.65,505.6 -1016.71,714.44 -359.05,208.83 -729.09,375.54 -1110.13,500.11 -381.03,124.57 -747.41,186.85 -1099.14,186.85 -256.46,0 -439.65,-31.15 -549.57,-93.43 -109.9,-62.28 -114.35,-90.29 -135.54,-175.63 -50.71,-204.2 -58.63,-441.47 153.88,-653.98 -7.32,-21.99 -18.32,-42.14 -32.97,-60.46 -14.65,-18.31 -30.34,-25.57 -43.97,-16.48 -30.48,20.32 -67.78,53.13 -115.4,93.42 -47.62,40.3 -95.26,87.93 -142.89,142.89 -47.63,54.96 -29.34,217.76 -62.31,291.04 -32.97,73.27 -49.46,146.55 -49.46,219.83 0,109.91 32.97,212.5 98.92,307.76 65.95,95.26 152.05,177.69 258.3,247.3 106.25,69.62 230.82,122.74 373.71,159.38 142.89,36.64 291.27,54.96 445.15,54.96 432.33,0 855.5,-60.46 1269.5,-181.36 414.01,-120.91 804.21,-283.95 1170.59,-489.12 366.38,-205.17 703.45,-443.32 1011.21,-714.44 307.75,-271.12 571.55,-553.23 791.38,-846.34 219.82,-293.1 392.02,-591.7 516.59,-895.8 124.57,-304.09 186.85,-591.7 186.85,-862.82zm802.37 5462.72c21.99,-36.64 34.81,-78.77 38.47,-126.4 3.67,-47.63 -12.82,-71.44 -49.46,-71.44 -21.98,21.98 -67.78,67.78 -137.39,137.39 -69.61,69.61 -153.88,150.21 -252.8,241.81 -98.93,91.59 -205.18,190.52 -318.75,296.77 -113.58,106.25 -225.33,203.34 -335.24,291.27 -212.5,168.53 -408.51,296.77 -588.04,384.7 -179.53,87.93 -313.25,131.89 -401.19,131.89 -87.93,0 -131.89,-51.29 -131.89,-153.88 0,-67.78 60.45,-172.19 181.36,-315.08 120.9,-144.72 252.8,-300.43 395.69,-468.97 142.88,-170.36 274.78,-338.9 395.69,-509.27 120.9,-168.53 181.35,-307.75 181.35,-419.5 0,-197.85 -69.61,-338.9 -208.83,-425 -139.23,-84.27 -311.43,-126.4 -516.6,-126.4 -124.57,0 -228.99,-3.67 -313.25,-10.99 -84.27,-7.33 -126.4,-29.31 -126.4,-65.95 0,-14.66 40.3,-69.61 120.9,-164.87 80.6,-95.26 172.2,-201.51 274.79,-318.75 117.24,-124.57 214.33,-245.48 291.27,-362.72 76.94,-117.24 115.41,-194.18 115.41,-230.82 0,-124.57 -113.58,-186.85 -340.74,-186.85 -117.24,0 -249.13,51.29 -393.85,153.88 -144.72,102.58 -282.12,221.66 -412.18,357.22 -130.07,135.56 -239.98,274.78 -331.57,417.67 -91.6,142.89 -137.4,254.63 -137.4,335.24 0,128.23 51.3,225.32 153.88,293.1 102.59,67.78 232.65,102.59 390.2,102.59 144.72,0 276.61,-7.33 395.69,-21.98 120.9,-14.66 228.98,-21.99 324.24,-21.99 117.24,0 175.87,25.65 175.87,76.94 0,73.28 -60.46,185.02 -181.36,335.24 -120.91,150.22 -252.8,315.09 -393.86,494.61 -141.06,179.53 -271.12,360.89 -390.2,544.08 -119.07,183.19 -177.69,344.39 -177.69,483.62 0,168.53 51.29,294.93 155.71,379.2 104.42,84.27 218,126.4 338.9,126.4 197.85,0 410.35,-64.12 637.5,-192.35 227.16,-128.23 443.32,-280.28 648.5,-456.14 271.12,-227.16 487.28,-430.5 648.49,-610.02 161.2,-179.53 252.8,-287.61 274.78,-324.25zm2945.7 -714.44c-14.66,-14.65 -31.14,-49.46 -49.46,-104.42 -18.32,-54.95 -38.47,-111.74 -60.46,-170.36l0 -65.95c0,-241.81 -54.95,-415.84 -164.87,-522.09 -109.91,-106.25 -234.48,-159.38 -373.7,-159.38 -95.26,0 -201.51,14.66 -318.75,43.97 -117.25,29.31 -201.51,43.96 -252.81,43.96 -21.98,0 -42.13,-12.82 -60.45,-38.47 -18.32,-25.64 -38.47,-54.95 -60.45,-87.93 -21.98,-32.97 -43.97,-62.28 -65.95,-87.93 -21.98,-25.65 -51.29,-38.47 -87.93,-38.47 -102.59,0 -223.49,43.97 -362.72,131.9 -139.22,87.93 -285.77,205.17 -439.65,351.72 -153.88,146.55 -305.93,311.42 -456.14,494.61 -150.22,183.19 -287.61,370.05 -412.18,560.57 -124.57,190.51 -223.49,377.37 -296.77,560.56 -73.28,183.19 -109.91,344.39 -109.91,483.62 0,241.81 78.77,423.17 236.31,544.07 157.55,120.91 353.56,181.36 588.04,181.36 227.16,0 461.64,-67.78 703.45,-203.34 241.81,-135.56 474.46,-302.26 697.95,-500.11 223.49,-197.84 426.84,-412.18 610.03,-643 183.19,-230.82 329.74,-441.48 439.65,-632 51.29,-7.33 98.92,-16.49 142.89,-27.48 43.96,-10.99 76.94,-16.49 98.92,-16.49 87.93,0 106.25,-32.97 54.96,-98.92zm-505.61 -681.47c0,14.66 -34.8,58.63 -104.41,131.9 -69.62,73.28 -104.42,172.2 -104.42,296.77 0,95.26 12.82,157.54 38.47,186.85 25.64,29.31 45.8,51.3 60.45,65.95 0,58.62 -38.47,144.72 -115.41,258.3 -76.94,113.58 -179.52,239.98 -307.76,379.2 -128.23,139.23 -271.12,282.11 -428.66,428.67 -157.55,146.55 -315.09,278.44 -472.63,395.69 -157.54,117.24 -307.76,214.33 -450.65,291.27 -142.89,76.94 -265.62,115.41 -368.21,115.41 -205.17,0 -307.76,-102.59 -307.76,-307.76 0,-117.24 38.47,-256.47 115.41,-417.67 76.94,-161.21 181.36,-326.08 313.26,-494.62 131.89,-168.53 282.11,-335.23 450.64,-500.11 168.54,-164.87 342.57,-311.42 522.09,-439.65 179.53,-128.23 360.89,-232.65 544.08,-313.26 183.19,-80.6 351.72,-120.9 505.6,-120.9 73.28,0 109.91,14.65 109.91,43.96zm5506.69 -1044.18c0,-36.64 -7.33,-93.42 -21.98,-170.36 -14.66,-76.94 -29.31,-133.73 -43.97,-170.37 -14.65,-73.28 -91.59,-109.91 -230.82,-109.91 -80.6,0 -155.71,45.79 -225.32,137.39 -69.61,91.59 -104.42,174.03 -104.42,247.3 0,36.64 14.66,75.11 43.97,115.41 29.31,40.31 64.11,78.78 104.42,115.41 40.3,36.64 80.6,67.78 120.9,93.43 40.3,25.65 71.45,38.47 93.43,38.47 21.98,0 47.63,-12.82 76.94,-38.47 29.31,-25.65 58.62,-54.96 87.93,-87.93 29.31,-32.97 53.12,-65.95 71.44,-98.92 18.32,-32.98 27.48,-56.79 27.48,-71.45zm769.4 -2791.81c21.98,-95.26 -30.19,-159.98 -132.78,-189.29 -58.62,21.98 -128.3,-1.01 -175.93,24.64 -47.63,25.65 -97.09,53.13 -148.39,82.44 7.33,-73.28 35.75,-115.64 28.43,-225.55 -7.32,-109.9 -27.47,-216.16 -60.45,-318.75 -32.97,-102.59 -80.6,-190.52 -142.89,-263.79 -62.28,-73.28 -144.72,-109.92 -247.3,-109.92 -168.54,0 -338.9,54.96 -511.1,164.87 -172.2,109.92 -346.23,258.3 -522.09,445.16 -175.87,186.85 -348.06,403.01 -516.6,648.49 -168.53,245.47 -333.4,500.11 -494.61,763.9 -153.88,256.46 -298.6,511.1 -434.16,763.9 -135.56,252.8 -261.96,490.95 -379.2,714.44 -117.25,223.49 -219.83,428.67 -307.76,615.52 -87.93,186.85 -164.87,346.23 -230.82,478.12 -102.59,7.33 -216.17,18.32 -340.74,32.98 -124.56,14.65 -247.3,32.97 -368.21,54.96 -120.9,21.98 -238.14,45.79 -351.72,71.44 -113.58,25.65 -214.33,49.46 -302.26,71.44 -36.64,7.33 -71.45,21.99 -104.42,43.97 -32.98,21.98 -49.46,51.29 -49.46,87.93 0,36.64 12.82,71.44 38.47,104.42 25.64,32.97 56.78,45.8 93.42,38.47 73.28,-21.98 163.04,-43.97 269.29,-65.95 106.25,-21.98 216.17,-42.13 329.74,-60.45 113.58,-18.32 223.5,-32.98 329.75,-43.97 106.25,-10.99 203.34,-16.49 291.27,-16.49 -36.64,80.61 -95.26,203.35 -175.87,368.22 -80.6,164.87 -174.03,357.22 -280.28,577.04 -106.25,219.83 -225.32,461.64 -357.22,725.44 -131.89,263.79 -271.12,531.25 -417.67,802.37 -205.17,388.36 -415.84,773.06 -632,1154.09 -216.17,381.04 -426.84,723.6 -632.01,1027.7 -205.17,304.09 -397.52,551.4 -577.05,741.92 -179.52,190.51 -327.91,285.77 -445.15,285.77 -73.27,0 -131.89,-21.98 -175.86,-65.95 -43.97,-43.96 -76.94,-95.25 -98.92,-153.87 -21.99,-58.63 -36.64,-122.74 -43.97,-192.35 -7.33,-69.62 -10.99,-130.07 -10.99,-181.36 0,-249.14 47.63,-507.44 142.89,-774.9 95.26,-267.45 208.84,-503.77 340.73,-708.94 -14.65,-65.95 -43.96,-98.92 -87.93,-98.92 -73.28,0 -148.38,62.28 -225.32,186.85 -76.94,124.57 -148.39,269.29 -214.33,434.16 -65.95,164.87 -122.74,324.25 -170.37,478.13 -47.63,153.88 -71.45,260.13 -71.45,318.75l0 131.89c0,95.26 9.16,194.19 27.48,296.77 18.32,102.59 53.13,194.18 104.42,274.79 51.29,80.6 115.41,148.38 192.35,203.34 76.94,54.95 174.03,82.43 291.27,82.43 190.52,0 388.36,-78.77 593.54,-236.31 205.17,-157.55 403.02,-346.23 593.53,-566.06 190.52,-219.83 364.55,-445.15 522.09,-675.97 157.55,-230.82 280.28,-419.5 368.22,-566.06 373.7,-630.17 738.25,-1276.83 1093.64,-1939.98 355.39,-663.14 705.28,-1320.8 1049.68,-1972.95l1439.87 175.86c-95.26,109.92 -142.89,201.51 -142.89,274.79 0,73.27 -36.64,153.88 -109.91,241.81 -14.66,21.98 -64.12,89.76 -148.39,203.34 -84.26,113.57 -174.03,249.14 -269.29,406.68 -95.26,157.54 -179.52,324.24 -252.8,500.11 -73.27,175.86 -109.91,333.4 -109.91,472.63 0,161.2 40.3,271.12 120.9,329.74 80.61,58.62 175.86,87.93 285.78,87.93 168.53,0 342.56,-45.8 522.09,-137.39 179.53,-91.6 331.57,-174.03 456.14,-247.31 58.62,-36.64 131.9,-87.93 219.83,-153.88 87.93,-65.95 174.03,-131.9 258.3,-197.84 84.27,-65.95 161.21,-128.24 230.82,-186.86 69.61,-58.62 115.41,-98.92 137.39,-120.9 7.33,-87.93 -18.32,-131.9 -76.94,-131.9 -73.28,58.62 -175.86,133.73 -307.76,225.32 -131.9,91.6 -274.78,185.03 -428.66,280.28 -161.21,95.26 -316.92,177.7 -467.14,247.31 -150.21,69.61 -269.29,104.42 -357.22,104.42 -51.29,0 -87.93,-16.49 -109.91,-49.46 -21.98,-32.98 -32.98,-64.12 -32.98,-93.43 0,-87.93 53.13,-208.84 159.38,-362.71 106.25,-153.88 214.33,-300.44 324.25,-439.66 51.29,-65.95 113.57,-137.39 186.85,-214.33 73.28,-76.94 142.89,-150.22 208.84,-219.83 65.94,-69.61 124.56,-133.73 175.86,-192.35 51.29,-58.62 87.93,-98.92 109.91,-120.9 36.64,-51.3 65.95,-135.57 87.93,-252.81 21.99,-117.24 32.98,-205.17 32.98,-263.79 0,-51.29 -31.15,-113.58 -93.43,-186.85 -62.28,-73.28 -141.06,-109.92 -236.31,-109.92 -278.45,0 -556.9,-18.32 -835.35,-54.95 -278.45,-36.64 -560.56,-54.96 -846.34,-54.96 234.49,-439.66 454.31,-866.49 659.49,-1280.5 205.17,-414.01 421.33,-840.84 648.49,-1280.5 43.96,-87.93 124.57,-234.48 241.81,-439.65 117.24,-205.17 247.3,-410.35 390.19,-615.52 142.89,-205.17 289.44,-386.53 439.66,-544.07 150.21,-157.55 280.28,-236.32 390.19,-236.32 80.61,0 131.9,25.65 153.88,76.94 21.99,51.3 32.98,109.92 32.98,175.86 0,73.28 -14.66,152.05 -43.97,236.32 -29.31,84.27 -64.12,164.87 -104.42,241.81 -40.3,76.94 -75.1,144.72 -104.42,203.34 -29.31,58.62 -43.96,98.92 -43.96,120.91 0,36.63 32.97,97.09 98.92,181.35 65.95,84.27 117.24,126.4 153.88,126.4 21.98,0 51.29,-38.47 87.93,-115.4 36.64,-76.94 58.62,-122.74 65.95,-137.4 65.95,-58.62 150.22,-128.23 252.8,-208.83 102.59,-80.61 197.85,-124.57 285.78,-131.9z"/>
  <path class="fil1" d="M20387.86 2726.31l0 0zm0 0c-87.93,7.33 -183.19,51.29 -285.78,131.9 -102.58,80.6 -186.85,150.21 -252.8,208.83 -7.33,14.66 -29.31,60.46 -65.95,137.4 -36.64,76.93 -65.95,115.4 -87.93,115.4 -36.64,0 -87.93,-42.13 -153.88,-126.4 -65.95,-84.26 -98.92,-144.72 -98.92,-181.35 0,-21.99 14.65,-62.29 43.96,-120.91 29.32,-58.62 64.12,-126.4 104.42,-203.34 40.3,-76.94 75.11,-157.54 104.42,-241.81 29.31,-84.27 43.97,-163.04 43.97,-236.32 0,-65.94 -10.99,-124.56 -32.98,-175.86 -21.98,-51.29 -73.27,-76.94 -153.88,-76.94 -109.91,0 -239.98,78.77 -390.19,236.32 -150.22,157.54 -296.77,338.9 -439.66,544.07 -142.89,205.17 -272.95,410.35 -390.19,615.52 -117.24,205.17 -197.85,351.72 -241.81,439.65 -227.16,439.66 -443.32,866.49 -648.49,1280.5 -205.18,414.01 -425,840.84 -659.49,1280.5 285.78,0 567.89,18.32 846.34,54.96 278.45,36.63 556.9,54.95 835.35,54.95 95.25,0 174.03,36.64 236.31,109.92 62.28,73.27 93.43,135.56 93.43,186.85 0,58.62 -10.99,146.55 -32.98,263.79 -21.98,117.24 -51.29,201.51 -87.93,252.81 -21.98,21.98 -58.62,62.28 -109.91,120.9 -51.3,58.62 -109.92,122.74 -175.86,192.35 -65.95,69.61 -135.56,142.89 -208.84,219.83 -73.28,76.94 -135.56,148.38 -186.85,214.33 -109.92,139.22 -218,285.78 -324.25,439.66 -106.25,153.87 -159.38,274.78 -159.38,362.71 0,29.31 11,60.45 32.98,93.43 21.98,32.97 58.62,49.46 109.91,49.46 87.93,0 207.01,-34.81 357.22,-104.42 150.22,-69.61 305.93,-152.05 467.14,-247.31 153.88,-95.25 296.76,-188.68 428.66,-280.28 131.9,-91.59 234.48,-166.7 307.76,-225.32 58.62,0 84.27,43.97 76.94,131.9 -21.98,21.98 -67.78,62.28 -137.39,120.9 -69.61,58.62 -146.55,120.91 -230.82,186.86 -84.27,65.94 -170.37,131.89 -258.3,197.84 -87.93,65.95 -161.21,117.24 -219.83,153.88 -124.57,73.28 -276.61,155.71 -456.14,247.31 -179.53,91.59 -353.56,137.39 -522.09,137.39 -109.92,0 -205.17,-29.31 -285.78,-87.93 -80.6,-58.62 -120.9,-168.54 -120.9,-329.74 0,-139.23 36.64,-296.77 109.91,-472.63 73.28,-175.87 157.54,-342.57 252.8,-500.11 95.26,-157.54 185.03,-293.11 269.29,-406.68 84.27,-113.58 133.73,-181.36 148.39,-203.34 73.27,-87.93 109.91,-168.54 109.91,-241.81 0,-73.28 47.63,-164.87 142.89,-274.79l-1439.87 -175.86c-344.4,652.15 -694.29,1309.81 -1049.68,1972.95 -355.39,663.15 -719.94,1309.81 -1093.64,1939.98 -87.94,146.56 -210.67,335.24 -368.22,566.06 -157.54,230.82 -331.57,456.14 -522.09,675.97 -190.51,219.83 -388.36,408.51 -593.53,566.06 -205.18,157.54 -403.02,236.31 -593.54,236.31 -117.24,0 -214.33,-27.48 -291.27,-82.43 -76.94,-54.96 -141.06,-122.74 -192.35,-203.34 -51.29,-80.61 -86.1,-172.2 -104.42,-274.79 -18.32,-102.58 -27.48,-201.51 -27.48,-296.77l0 -131.89c0,-58.62 23.82,-164.87 71.45,-318.75 47.63,-153.88 104.42,-313.26 170.37,-478.13 65.94,-164.87 137.39,-309.59 214.33,-434.16 76.94,-124.57 152.04,-186.85 225.32,-186.85 43.97,0 73.28,32.97 87.93,98.92 -131.89,205.17 -245.47,441.49 -340.73,708.94 -95.26,267.46 -142.89,525.76 -142.89,774.9 0,51.29 3.66,111.74 10.99,181.36 7.33,69.61 21.98,133.72 43.97,192.35 21.98,58.62 54.95,109.91 98.92,153.87 43.97,43.97 102.59,65.95 175.86,65.95 117.24,0 265.63,-95.26 445.15,-285.77 179.53,-190.52 371.88,-437.83 577.05,-741.92 205.17,-304.1 415.84,-646.66 632.01,-1027.7 216.16,-381.03 426.83,-765.73 632,-1154.09 146.55,-271.12 285.78,-538.58 417.67,-802.37 131.9,-263.8 250.97,-505.61 357.22,-725.44 106.25,-219.82 199.68,-412.17 280.28,-577.04 80.61,-164.87 139.23,-287.61 175.87,-368.22 -87.93,0 -185.02,5.5 -291.27,16.49 -106.25,10.99 -216.17,25.65 -329.75,43.97 -113.57,18.32 -223.49,38.47 -329.74,60.45 -106.25,21.98 -196.01,43.97 -269.29,65.95 -36.64,7.33 -67.78,-5.5 -93.42,-38.47 -25.65,-32.98 -38.47,-67.78 -38.47,-104.42 0,-36.64 16.48,-65.95 49.46,-87.93 32.97,-21.98 67.78,-36.64 104.42,-43.97 87.93,-21.98 188.68,-45.79 302.26,-71.44 113.58,-25.65 230.82,-49.46 351.72,-71.44 120.91,-21.99 243.65,-40.31 368.21,-54.96 124.57,-14.66 238.15,-25.65 340.74,-32.98 65.95,-131.89 142.89,-291.27 230.82,-478.12 87.93,-186.85 190.51,-392.03 307.76,-615.52 117.24,-223.49 243.64,-461.64 379.2,-714.44 135.56,-252.8 280.28,-507.44 434.16,-763.9 161.21,-263.79 326.08,-518.43 494.61,-763.9 168.54,-245.48 340.73,-461.64 516.6,-648.49 175.86,-186.86 349.89,-335.24 522.09,-445.16 172.2,-109.91 342.56,-164.87 511.1,-164.87 102.58,0 185.02,36.64 247.3,109.92 62.29,73.27 109.92,161.2 142.89,263.79 32.98,102.59 53.13,208.84 60.45,318.75 7.33,109.91 7.33,201.51 0,274.79 51.3,-29.31 100.76,-56.79 148.39,-82.44 47.63,-25.65 100.75,-49.46 159.37,-71.44 102.59,29.31 142.89,91.59 120.91,186.85zm-769.4 2791.81c0,14.66 -9.16,38.47 -27.48,71.45 -18.32,32.97 -42.13,65.95 -71.44,98.92 -29.31,32.97 -58.62,62.28 -87.93,87.93 -29.31,25.65 -54.96,38.47 -76.94,38.47 -21.98,0 -53.13,-12.82 -93.43,-38.47 -40.3,-25.65 -80.6,-56.79 -120.9,-93.43 -40.31,-36.63 -75.11,-75.1 -104.42,-115.41 -29.31,-40.3 -43.97,-78.77 -43.97,-115.41 0,-73.27 34.81,-155.71 104.42,-247.3 69.61,-91.6 144.72,-137.39 225.32,-137.39 139.23,0 216.17,36.63 230.82,109.91 14.66,36.64 29.31,93.43 43.97,170.37 14.65,76.94 21.98,133.72 21.98,170.36zm-5506.69 1044.18c0,-29.31 -36.63,-43.96 -109.91,-43.96 -153.88,0 -322.41,40.3 -505.6,120.9 -183.19,80.61 -364.55,185.03 -544.08,313.26 -179.52,128.23 -353.55,274.78 -522.09,439.65 -168.53,164.88 -318.75,331.58 -450.64,500.11 -131.9,168.54 -236.32,333.41 -313.26,494.62 -76.94,161.2 -115.41,300.43 -115.41,417.67 0,205.17 102.59,307.76 307.76,307.76 102.59,0 225.32,-38.47 368.21,-115.41 142.89,-76.94 293.11,-174.03 450.65,-291.27 157.54,-117.25 315.08,-249.14 472.63,-395.69 157.54,-146.56 300.43,-289.44 428.66,-428.67 128.24,-139.22 230.82,-265.62 307.76,-379.2 76.94,-113.58 115.41,-199.68 115.41,-258.3 -14.65,-14.65 -34.81,-36.64 -60.45,-65.95 -25.65,-29.31 -38.47,-91.59 -38.47,-186.85 0,-124.57 34.8,-223.49 104.42,-296.77 69.61,-73.27 104.41,-117.24 104.41,-131.9zm505.61 681.47c51.29,65.95 32.97,98.92 -54.96,98.92 -21.98,0 -54.96,5.5 -98.92,16.49 -43.97,10.99 -91.6,20.15 -142.89,27.48 -109.91,190.52 -256.46,401.18 -439.65,632 -183.19,230.82 -386.54,445.16 -610.03,643 -223.49,197.85 -456.14,364.55 -697.95,500.11 -241.81,135.56 -476.29,203.34 -703.45,203.34 -234.48,0 -430.49,-60.45 -588.04,-181.36 -157.54,-120.9 -236.31,-302.26 -236.31,-544.07 -85.77,69.2 -209.03,194.79 -296.77,252.8 -205.18,175.86 -421.34,327.91 -648.5,456.14 -227.15,128.23 -439.65,192.35 -637.5,192.35 -120.9,0 -234.48,-42.13 -338.9,-126.4 -104.42,-84.27 -155.71,-210.67 -155.71,-379.2 0,-139.23 58.62,-300.43 177.69,-483.62 119.08,-183.19 249.14,-364.55 390.2,-544.08 141.06,-179.52 272.95,-344.39 393.86,-494.61 120.9,-150.22 181.36,-261.96 181.36,-335.24 0,-51.29 -58.63,-76.94 -175.87,-76.94 -95.26,0 -203.34,7.33 -324.24,21.99 -119.08,14.65 -250.97,21.98 -395.69,21.98 -157.55,0 -287.61,-34.81 -390.2,-102.59 -102.58,-67.78 -153.88,-164.87 -153.88,-293.1 0,-80.61 45.8,-192.35 137.4,-335.24 91.59,-142.89 201.5,-282.11 331.57,-417.67 130.06,-135.56 267.46,-254.64 412.18,-357.22 144.72,-102.59 276.61,-153.88 393.85,-153.88 227.16,0 340.74,62.28 340.74,186.85 0,36.64 -38.47,113.58 -115.41,230.82 -76.94,117.24 -174.03,238.15 -291.27,362.72 -102.59,117.24 -194.19,223.49 -274.79,318.75 -80.6,95.26 -120.9,150.21 -120.9,164.87 0,36.64 42.13,58.62 126.4,65.95 84.26,7.32 188.68,10.99 313.25,10.99 205.17,0 377.37,42.13 516.6,126.4 139.22,86.1 208.83,227.15 208.83,425 0,111.75 -60.45,250.97 -181.35,419.5 -120.91,170.37 -252.81,338.91 -395.69,509.27 -142.89,168.54 -274.79,324.25 -395.69,468.97 -120.91,142.89 -181.36,247.3 -181.36,315.08 0,102.59 43.96,153.88 131.89,153.88 87.94,0 221.66,-43.96 401.19,-131.89 179.53,-87.93 375.54,-216.17 588.04,-384.7 109.91,-87.93 221.66,-185.02 335.24,-291.27 50.56,-47.56 101.11,-95.11 151.67,-142.67 14.95,-40.81 27.82,-80.73 51.67,-137.61 73.28,-183.19 172.2,-370.05 296.77,-560.56 124.57,-190.52 261.96,-377.38 412.18,-560.57 150.21,-183.19 302.26,-348.06 456.14,-494.61 153.88,-146.55 300.43,-263.79 439.65,-351.72 139.23,-87.93 260.13,-131.9 362.72,-131.9 36.64,0 65.95,12.82 87.93,38.47 21.98,25.65 43.97,54.96 65.95,87.93 21.98,32.98 42.13,62.29 60.45,87.93 18.32,25.65 38.47,38.47 60.45,38.47 51.3,0 135.56,-14.65 252.81,-43.96 117.24,-29.31 223.49,-43.97 318.75,-43.97 139.22,0 263.79,53.13 373.7,159.38 109.92,106.25 164.87,280.28 164.87,522.09l0 65.95c21.99,58.62 42.14,115.41 60.46,170.36 18.32,54.96 34.8,89.77 49.46,104.42zm-3748.07 -4748.28c0,271.12 -62.28,558.73 -186.85,862.82 -124.57,304.1 -296.77,602.7 -516.59,895.8 -219.83,293.11 -483.63,575.22 -791.38,846.34 -307.76,271.12 -644.83,509.27 -1011.21,714.44 -366.38,205.17 -756.58,368.21 -1170.59,489.12 -414,120.9 -837.17,181.36 -1269.5,181.36 -153.88,0 -302.26,-18.32 -445.15,-54.96 -142.89,-36.64 -267.46,-89.76 -373.71,-159.38 -106.25,-69.61 -192.35,-152.04 -258.3,-247.3 -65.95,-95.26 -98.92,-197.85 -98.92,-307.76 0,-73.28 16.49,-146.55 49.46,-219.83 32.98,-73.28 73.28,-137.39 120.91,-192.35 47.63,-54.96 95.26,-102.59 142.89,-142.89 47.62,-40.3 86.09,-71.44 115.4,-93.42 14.66,-7.33 29.32,-1.84 43.97,16.48 14.66,18.32 25.65,38.47 32.97,60.46 -36.63,36.63 -86.09,104.41 -148.38,203.34 -62.28,98.92 -93.43,199.67 -93.43,302.26 0,87.93 54.96,163.04 164.87,225.32 109.92,62.29 293.11,93.43 549.57,93.43 351.73,0 718.11,-62.28 1099.14,-186.85 381.04,-124.57 751.08,-291.28 1110.13,-500.11 359.06,-208.84 697.96,-446.99 1016.71,-714.44 318.75,-267.46 599.03,-542.24 840.84,-824.36 241.81,-282.11 432.33,-558.73 571.55,-829.85 139.23,-271.12 208.84,-516.59 208.84,-736.42 0,-249.14 -106.25,-450.65 -318.75,-604.53 -212.5,-153.88 -567.89,-230.82 -1066.17,-230.82 -249.14,0 -520.26,25.65 -813.36,76.94 -293.1,51.3 -604.53,117.25 -934.27,197.85 36.64,58.62 71.45,144.72 104.42,258.3 32.97,113.57 49.46,194.18 49.46,245.47 0,29.31 -89.76,139.23 -269.29,329.74 -179.52,190.52 -415.84,443.32 -708.94,758.41 -293.11,315.09 -632.01,681.47 -1016.71,1102.8 -384.7,421.34 -778.55,875.65 -1181.57,1366.6 -344.4,417.67 -661.32,811.53 -950.76,1185.24 -289.44,373.7 -542.24,705.28 -758.4,992.88 -216.17,289.44 -384.7,523.93 -505.61,703.45 -120.9,179.53 -181.35,280.28 -181.35,302.27l32.97 21.98c21.98,-21.98 58.62,-62.28 109.91,-120.91 51.3,-58.62 108.09,-120.9 170.37,-186.85 62.29,-65.95 120.91,-126.4 175.86,-181.36 54.96,-54.95 93.43,-89.76 115.41,-104.42 51.3,-14.65 76.94,7.33 76.94,65.95 -21.98,36.64 -78.77,142.89 -170.36,318.75 -91.6,175.87 -194.19,362.72 -307.76,560.56 -113.58,196.02 -223.49,373.71 -329.75,531.25 -106.25,157.55 -185.02,236.32 -236.31,236.32 -58.62,0 -115.41,-25.65 -170.37,-76.94 -54.95,-51.29 -104.41,-115.41 -148.38,-192.35 -43.97,-76.94 -78.77,-155.71 -104.42,-236.31 -25.65,-80.61 -38.47,-150.22 -38.47,-208.84 0,-95.26 64.12,-261.96 192.35,-500.11 128.23,-238.15 293.1,-514.76 494.61,-829.85 201.51,-315.09 432.33,-652.15 692.46,-1011.21 260.13,-359.05 522.09,-703.45 785.89,-1033.19 337.06,-425 683.29,-850 1038.68,-1275 355.39,-425 692.46,-822.52 1011.21,-1192.56 318.75,-370.05 608.19,-701.62 868.32,-994.73 260.13,-293.1 463.47,-520.25 610.02,-681.46 -403.02,124.57 -813.36,267.46 -1231.03,428.66 -417.68,161.21 -820.69,327.91 -1209.06,500.11 -388.36,172.2 -751.08,342.57 -1088.14,511.1 -337.07,168.54 -630.18,324.25 -879.32,467.13 -249.13,142.89 -446.98,265.63 -593.53,368.22 -146.55,102.58 -219.83,172.19 -219.83,208.83 0,36.64 25.65,54.96 76.94,54.96 102.59,0 285.78,-62.28 549.57,-186.85 263.79,-124.57 549.57,-274.79 857.33,-450.65 197.84,-109.91 392.03,-221.66 582.54,-335.24 190.52,-113.58 368.21,-219.83 533.09,-318.75 164.87,-98.92 304.09,-185.02 417.67,-258.3 113.58,-73.27 192.35,-120.9 236.31,-142.88 36.64,-7.33 73.28,-7.33 109.92,0 36.63,7.32 58.62,32.97 65.95,76.94 -29.32,36.63 -100.76,98.92 -214.34,186.85 -113.57,87.93 -252.8,190.52 -417.67,307.76 -164.87,117.24 -349.89,241.81 -555.07,373.71 -205.17,131.89 -414,260.12 -626.5,384.69 -175.87,102.59 -349.9,199.68 -522.1,291.28 -172.19,91.59 -333.4,174.03 -483.62,247.3 -150.21,73.28 -287.6,130.07 -412.17,170.37 -124.57,40.3 -223.5,60.45 -296.77,60.45 -80.6,0 -157.54,-38.47 -230.82,-115.41 -73.28,-76.94 -109.91,-174.03 -109.91,-291.27 0,-80.6 115.41,-219.83 346.22,-417.67 230.82,-197.85 538.58,-421.34 923.28,-670.48 384.7,-249.14 829.85,-505.6 1335.46,-769.4 505.6,-263.79 1033.19,-507.43 1582.76,-730.92 549.56,-223.49 1102.8,-406.68 1659.7,-549.57 556.89,-142.89 1084.48,-214.33 1582.76,-214.33 395.69,0 732.75,40.3 1011.2,119.07 278.45,78.77 505.61,188.68 681.47,329.74 175.86,141.06 305.93,302.26 390.19,485.45 84.27,183.19 126.4,384.7 126.4,604.53z"/>
  <path class="fil0" d="M2402.57 12728.23c472.21,0 797.06,-271.27 998,-562.64 10.05,-16.74 3.35,-23.44 -6.7,-30.14l-43.53 -33.49c-10.05,-10.05 -16.75,-6.7 -26.8,10.05 -154.05,217.68 -448.76,425.32 -827.2,425.32 -224.39,0 -415.28,-26.79 -643.01,-281.32 -261.22,-288.01 -321.51,-666.45 -321.51,-860.69 -3.35,-488.96 237.78,-1021.45 837.26,-1021.45 264.57,0 442.07,113.87 582.72,257.87 140.66,144.01 214.34,304.76 261.23,415.28 10.04,26.79 16.74,30.14 33.49,26.79l50.23 -13.39c13.4,-3.35 16.75,-16.75 13.4,-33.49 -16.75,-93.77 -83.73,-586.08 -83.73,-649.71 0,-46.89 -6.7,-53.58 -36.84,-53.58 -30.14,0 -36.84,0 -43.53,20.09l-26.8 97.12c-6.69,23.44 -23.44,26.79 -66.98,0 -120.56,-70.33 -371.74,-184.19 -676.5,-184.19 -365.04,0 -666.45,157.4 -837.25,338.25 -241.13,254.52 -341.6,576.03 -341.6,887.48 0,321.51 117.22,709.99 358.35,937.73 200.94,184.19 452.11,308.11 847.3,308.11zm2009.13 -1363.05c0,204.29 -10.05,1038.19 -10.05,1101.82 0,43.54 -20.09,90.43 -144,90.43l-160.76 0c-20.09,0 -23.44,6.69 -23.44,23.44l0 83.72c0,16.75 3.35,23.45 26.79,23.45 23.45,0 63.63,-3.35 130.61,-6.7 70.33,0 167.46,-3.35 298.07,-3.35 180.84,0 509.05,0 807.11,3.35 298.06,0 559.28,3.35 602.82,6.7 20.09,-90.43 154.05,-643.01 164.1,-666.46 3.35,-20.09 3.35,-23.44 -6.7,-30.14l-53.58 -20.09c-13.4,-6.7 -20.09,0 -26.79,13.39 -46.89,130.62 -247.83,532.5 -445.42,562.64 -103.82,13.39 -766.92,6.7 -840.6,0 -10.05,-137.31 -10.05,-860.7 -10.05,-917.63l0 -288.01c0,-234.44 10.05,-740.14 10.05,-783.67 0,-97.12 13.39,-130.61 117.21,-130.61l200.94 0c26.8,0 33.49,-10.05 33.49,-26.8l0 -77.02c0,-16.75 -3.35,-26.8 -30.14,-26.8 -30.14,0 -170.8,10.05 -495.65,10.05 -277.97,0 -398.53,-10.05 -435.37,-10.05 -20.1,0 -23.45,6.7 -23.45,23.45l0 73.68c0,16.74 3.35,33.49 23.45,33.49l157.4 0c100.47,0 117.22,33.49 123.91,120.56 3.35,60.28 10.05,415.28 10.05,629.61l0 187.55zm3335.34 1363.05c291.37,0 495.66,-77.03 629.62,-200.95 187.54,-160.75 261.22,-371.74 281.31,-646.35 10.05,-130.62 16.75,-716.69 16.75,-763.58 0,-46.88 0,-522.44 6.7,-555.93 10.04,-40.19 20.09,-133.96 144,-133.96l137.31 0c16.75,0 20.1,-13.4 20.1,-33.49l0 -73.68c0,-10.05 -3.35,-23.45 -33.49,-23.45 -30.14,0 -137.31,10.05 -368.39,10.05 -224.39,0 -378.44,-10.05 -411.93,-10.05 -20.1,0 -23.44,6.7 -23.44,23.45l0 80.37c0,16.75 3.34,26.8 23.44,26.8l147.36 0c87.07,0 140.65,60.28 150.7,147.35 10.05,83.73 16.75,277.97 16.75,532.49l0 716.69c0,247.83 -43.54,448.77 -174.15,589.43 -117.22,120.56 -311.46,184.19 -502.35,184.19 -194.25,0 -408.58,-60.28 -532.5,-241.12 -77.02,-113.87 -103.82,-271.27 -107.17,-425.33 -3.34,-107.17 -16.74,-532.49 -16.74,-709.99l0 -221.03c0,-170.8 3.35,-405.23 6.7,-435.38 6.7,-73.67 63.63,-137.3 160.75,-137.3l167.45 0c23.44,0 26.79,-6.7 26.79,-23.45l0 -87.07c0,-13.4 -3.35,-20.1 -30.14,-20.1 -36.84,0 -197.59,10.05 -458.81,10.05 -261.23,0 -425.33,-10.05 -458.82,-10.05 -26.79,0 -30.14,6.7 -30.14,26.8l0 73.67c0,23.45 3.35,30.15 23.45,30.15l157.4 0c103.82,0 127.26,53.58 127.26,170.79l0 797.07c0,438.72 13.4,663.1 53.59,813.81 53.58,210.99 170.79,358.34 398.53,448.77 110.51,46.88 277.97,70.33 452.11,70.33zm2129.7 -1111.88c0,274.62 -6.69,716.69 -16.74,793.72 -13.4,107.17 -30.14,147.36 -133.96,147.36l-160.75 0c-23.45,0 -30.15,6.69 -30.15,23.44l0 87.07c0,13.4 6.7,20.1 46.89,20.1 63.63,0 261.22,-10.05 428.67,-10.05 140.66,0 271.27,10.05 502.36,10.05 308.1,0 499,-33.49 639.66,-120.57 154.05,-97.12 257.87,-331.55 257.87,-502.35 0,-354.99 -217.69,-555.93 -542.54,-663.1l-10.05 -6.7c261.23,-137.31 408.58,-221.04 408.58,-552.59 0,-197.59 -66.98,-351.64 -257.87,-455.46 -117.22,-66.98 -331.55,-90.43 -592.78,-90.43 -117.21,0 -318.15,10.05 -425.32,10.05 -241.13,0 -391.83,-10.05 -445.42,-10.05 -20.09,0 -26.79,6.7 -26.79,23.45l0 83.72c0,16.75 6.7,23.45 26.79,23.45l103.82 0c154.06,0 207.64,6.69 217.69,200.94 3.35,60.28 10.04,468.86 10.04,592.77l0 395.18zm294.72 -150.7l107.16 0c154.06,0 311.46,3.35 448.77,56.93 197.59,77.03 334.9,254.53 334.9,525.8 0,398.53 -257.87,532.49 -539.19,532.49 -277.97,0 -351.64,-137.31 -351.64,-445.42l0 -462.16 0 -207.64zm0 -361.69c0,-277.97 3.35,-569.34 6.69,-636.32 0,-30.14 20.1,-53.58 46.89,-60.28 26.79,-6.7 63.63,-3.35 110.52,-3.35 170.8,0 338.25,30.14 458.81,113.87 123.92,90.42 164.1,224.38 164.1,351.64 0,147.36 -50.23,298.07 -187.54,401.89 -80.38,56.93 -231.08,87.07 -421.98,87.07 -56.93,0 -113.86,0 -177.49,-6.7l0 -247.82z"/>
 </g>
</svg>
