<svg height="512pt" viewBox="0 0 512 512.00053" width="512pt" xmlns="http://www.w3.org/2000/svg"><path d="m504.492188 255.996094c0 137.238281-111.257813 248.496094-248.496094 248.496094-137.242188 0-248.496094-111.257813-248.496094-248.496094 0-137.242188 111.253906-248.496094 248.496094-248.496094 137.238281 0 248.496094 111.253906 248.496094 248.496094zm0 0" fill="#efe2ea"/><path d="m37.5 255.996094c0-132.203125 103.242188-240.273438 233.496094-248.03125-4.964844-.296875-9.960938-.464844-15-.464844-137.242188 0-248.496094 111.253906-248.496094 248.496094 0 137.238281 111.253906 248.496094 248.496094 248.496094 5.039062 0 10.035156-.167969 15-.464844-130.253906-7.757813-233.496094-115.828125-233.496094-248.03125zm0 0" fill="#c26573"/><path d="m289.328125 340.992188h-66.664063v-105.148438h33.332032c28.820312 0 52.269531-23.488281 52.269531-52.363281 0-28.871094-23.449219-52.359375-52.269531-52.359375-28.824219 0-52.269532 23.488281-52.269532 52.359375h-66.664062c0-65.695313 53.351562-119.144531 118.933594-119.144531 65.578125 0 118.929687 53.449218 118.929687 119.144531 0 54.109375-36.191406 99.910156-85.597656 114.382812zm0 0" fill="#f8f1f5"/><path d="m222.664062 380.988281h66.664063v66.664063h-66.664063zm0 0" fill="#f8f2f5"/><g fill="#c26573"><path d="m270.996094 65.28125c-4.914063-.621094-9.917969-.941406-15-.941406-65.578125 0-118.933594 53.445312-118.933594 119.144531h30c0-60.609375 45.40625-110.792969 103.933594-118.203125zm0 0"/><path d="m222.664062 235.84375h30v105.148438h-30zm0 0"/><path d="m222.664062 380.988281h30v66.664063h-30zm0 0"/></g><path d="m275.996094 190.980469h-15v-15h15zm-25 0h-15v-15h15zm0 0" fill="#fff"/><path d="m296.828125 303.34375c23.542969-8.089844 44.617187-23.300781 59.796875-43.269531 16.882812-22.199219 25.804688-48.6875 25.804688-76.59375 0-69.832031-56.71875-126.640625-126.433594-126.640625s-126.433594 56.808594-126.433594 126.640625v7.5h81.664062v-7.5c0-24.734375 20.082032-44.859375 44.769532-44.859375 24.683594 0 44.769531 20.125 44.769531 44.859375 0 24.738281-20.085937 44.863281-44.769531 44.863281h-40.832032v57.71875h15v-42.71875h25.832032c32.957031 0 59.769531-26.855469 59.769531-59.863281 0-33.007813-26.8125-59.859375-59.769531-59.859375-30.421875 0-55.605469 22.878906-59.304688 52.359375h-51.882812c3.863281-58.074219 52.257812-104.144531 111.1875-104.144531 61.445312 0 111.433594 50.085937 111.433594 111.644531 0 49.273437-32.984376 93.351562-80.210938 107.1875l-5.390625 1.578125v41.246094h-51.664063v-27.429688h-15v42.429688h81.664063zm0 0"/><path d="m215.164062 455.152344h81.664063v-81.664063h-81.664063zm15-66.664063h51.664063v51.664063h-51.664063zm0 0"/><path d="m255.996094 86.835938v15c44.902344 0 81.433594 36.625 81.433594 81.644531h15c0-53.289063-43.261719-96.644531-96.433594-96.644531zm0 0"/><path d="m437.011719 74.980469c-48.351563-48.351563-112.636719-74.980469-181.015625-74.980469s-132.664063 26.628906-181.015625 74.980469c-48.351563 48.351562-74.980469 112.636719-74.980469 181.015625s26.628906 132.664062 74.980469 181.015625c97.816406 97.816406 252.324219 98.757812 351.730469 9.726562l-10.007813-11.171875c-44.226563 39.609375-101.300781 61.425782-160.707031 61.425782-132.886719 0-240.996094-108.109376-240.996094-240.996094 0-132.886719 108.109375-240.996094 240.996094-240.996094 132.886718 0 240.996094 108.109375 240.996094 240.996094 0 59.40625-21.816407 116.480468-61.425782 160.707031l11.171875 10.007813c89.121094-99.507813 87.992188-254.011719-9.726562-351.730469zm0 0"/></svg>